<?xml version="1.0" encoding="UTF-8"?><svg id="_レイヤー_1" xmlns="http://www.w3.org/2000/svg" xmlns:xlink="http://www.w3.org/1999/xlink" viewBox="0 0 1470.04 395.9"><defs><style>.cls-1{fill:#8cc63f;}.cls-2{fill:url(#_名称未設定グラデーション_40);}.cls-3{fill:url(#_名称未設定グラデーション_40-2);}.cls-4{fill:url(#_名称未設定グラデーション_40-4);}.cls-5{fill:url(#_名称未設定グラデーション_40-5);}.cls-6{fill:url(#_名称未設定グラデーション_40-3);}.cls-7{fill:#39b54a;}.cls-8{fill:none;stroke:url(#_名称未設定グラデーション_48);stroke-miterlimit:10;stroke-width:12px;}.cls-9{fill:url(#_名称未設定グラデーション_40-7);}.cls-10{fill:url(#_名称未設定グラデーション_40-6);}</style><linearGradient id="_名称未設定グラデーション_48" x1="110.63" y1="372.37" x2="312.03" y2="23.52" gradientUnits="userSpaceOnUse"><stop offset=".1" stop-color="#39b54a"/><stop offset=".15" stop-color="#50b946"/><stop offset=".22" stop-color="#66be43"/><stop offset=".31" stop-color="#77c141"/><stop offset=".41" stop-color="#83c440"/><stop offset=".55" stop-color="#8ac53f"/><stop offset=".95" stop-color="#8cc63f"/></linearGradient><linearGradient id="_名称未設定グラデーション_40" x1="82.11" y1="117.65" x2="180.32" y2="287.77" gradientUnits="userSpaceOnUse"><stop offset="0" stop-color="#8cc63f"/><stop offset=".91" stop-color="#39b54a"/></linearGradient><linearGradient id="_名称未設定グラデーション_40-2" x1="95.91" y1="109.35" x2="194.04" y2="279.32" xlink:href="#_名称未設定グラデーション_40"/><linearGradient id="_名称未設定グラデーション_40-3" x1="269.21" y1="119.11" x2="311.3" y2="192.03" xlink:href="#_名称未設定グラデーション_40"/><linearGradient id="_名称未設定グラデーション_40-4" x1="272.78" y1="125.37" x2="315.18" y2="198.82" xlink:href="#_名称未設定グラデーション_40"/><linearGradient id="_名称未設定グラデーション_40-5" x1="129.49" y1="159.8" x2="196.86" y2="276.49" xlink:href="#_名称未設定グラデーション_40"/><linearGradient id="_名称未設定グラデーション_40-6" x1="204.61" y1="251.52" x2="257.82" y2="343.68" xlink:href="#_名称未設定グラデーション_40"/><linearGradient id="_名称未設定グラデーション_40-7" x1="262.36" y1="156.46" x2="290.7" y2="205.53" xlink:href="#_名称未設定グラデーション_40"/></defs><ellipse class="cls-8" cx="211.33" cy="197.95" rx="205.33" ry="191.95"/><path class="cls-2" d="M48.05,135.73c-1.49,15.04,.49,30.48,5.45,44.75,5.09,14.64,13.15,28.17,23.72,39.53s24.32,20.79,38.72,27.46c15.23,7.05,31.43,11.59,48,14.13,18.38,2.81,36.97,3.41,55.53,2.88,2.25-.07,4.5-.15,6.75-.24s4.61-2,4.5-4.5c-.11-2.35-1.98-4.6-4.5-4.5-17.9,.74-35.89,.65-53.7-1.47-3.98-.47-8.1-1.09-12.59-1.92-4.08-.75-8.14-1.63-12.17-2.65-7.62-1.93-15.13-4.36-22.4-7.35-.21-.09-1.15-.48-.48-.19-.45-.19-.9-.38-1.35-.58-.96-.42-1.92-.85-2.87-1.29-1.77-.82-3.53-1.67-5.27-2.56-3.4-1.74-6.72-3.62-9.96-5.65-1.64-1.03-3.26-2.09-4.85-3.2-.74-.51-1.47-1.03-2.19-1.56-.39-.28-.78-.57-1.17-.86-.17-.12-.33-.25-.5-.37,.02,.02-.92-.71-.53-.4,.37,.29-.17-.13-.2-.16-.22-.17-.43-.34-.65-.51-.32-.26-.65-.52-.97-.78-.8-.65-1.59-1.31-2.38-1.99-1.44-1.24-2.86-2.52-4.23-3.84-2.64-2.53-5.15-5.2-7.51-8-.6-.71-1.19-1.43-1.77-2.15-.25-.31-.49-.62-.74-.94-.53-.68-.13-.17-.03-.03-.16-.21-.32-.42-.48-.63-1.11-1.48-2.19-2.99-3.22-4.52-2.06-3.06-3.97-6.23-5.7-9.49-.86-1.63-1.69-3.27-2.47-4.94-.36-.77-.71-1.55-1.06-2.33-.09-.2-.6-1.4-.25-.55-.18-.42-.35-.85-.52-1.27-2.75-6.79-4.8-13.86-6.08-21.07-.15-.83-.29-1.67-.41-2.51-.07-.45-.13-.9-.2-1.35-.08-.53,.02,.17,.03,.23-.04-.32-.08-.65-.12-.97-.21-1.75-.37-3.5-.49-5.25-.24-3.64-.29-7.29-.13-10.93,.08-1.82,.22-3.64,.4-5.46,.23-2.35-2.24-4.6-4.5-4.5-2.64,.12-4.25,1.98-4.5,4.5h0Z"/><path class="cls-3" d="M51.34,140.07c16.83,2.75,33.61,5.81,50.21,9.72,16.43,3.87,32.72,8.54,48.5,14.57,1.95,.74,3.89,1.52,5.81,2.31,0,0,.69,.29,.32,.13s.32,.14,.32,.13c.43,.18,.85,.37,1.28,.55,.99,.43,1.98,.87,2.96,1.32,3.78,1.74,7.49,3.63,11.08,5.73,3.01,1.75,5.92,3.66,8.73,5.71,.67,.49,1.33,.98,1.98,1.48-.61-.47,.05,.05,.29,.23,.4,.32,.79,.63,1.19,.95,1.28,1.04,2.53,2.12,3.76,3.22,2.54,2.29,4.98,4.7,7.29,7.22,1.11,1.21,2.2,2.45,3.25,3.72,.53,.63,1.05,1.27,1.56,1.91,.28,.35,.55,.69,.82,1.04-.52-.67,.16,.22,.33,.45,4.06,5.41,7.62,11.2,10.6,17.26,.75,1.53,1.47,3.08,2.15,4.64,.08,.17,.15,.35,.22,.52-.02-.05-.28-.68-.09-.2,.14,.35,.29,.7,.43,1.05,.33,.82,.65,1.64,.96,2.47,1.2,3.18,2.24,6.42,3.13,9.7s1.58,6.48,2.12,9.76c.13,.81,.25,1.61,.37,2.42,.08,.53-.03-.21-.03-.26,.02,.19,.05,.37,.07,.56,.06,.5,.12,1,.18,1.5,.18,1.62,.32,3.25,.42,4.88s.16,3.39,.17,5.09c.02,2.35,2.05,4.61,4.5,4.5s4.52-1.98,4.5-4.5c-.13-14.26-3.31-28.24-8.89-41.34s-13.55-24.77-23.43-34.71c-10.8-10.86-23.73-18.89-37.78-24.85-16.05-6.81-32.81-11.94-49.71-16.18s-33.76-7.48-50.8-10.36c-2.12-.36-4.24-.71-6.37-1.06-2.31-.38-4.96,.6-5.54,3.14-.49,2.17,.66,5.13,3.14,5.54h0Z"/><path class="cls-6" d="M346.43,78.67c-26.19,8.23-52.25,19.23-72.66,38.08-9.9,9.15-17.73,20.06-23.85,32.04s-11.57,25.73-14.86,39.38c-3.64,15.13-5.02,30.9-3.05,46.38,.3,2.33,1.86,4.62,4.5,4.5,2.18-.1,4.82-2,4.5-4.5-.85-6.7-1.1-13.47-.77-20.22,.16-3.3,.47-6.58,.87-9.86,.18-1.47-.13,.87,.08-.59,.04-.3,.09-.6,.13-.89,.12-.82,.25-1.64,.39-2.45,.29-1.71,.6-3.41,.95-5.11,1.34-6.52,3.13-12.95,5.29-19.25,1.13-3.3,2.37-6.57,3.7-9.81,.12-.28,.23-.56,.35-.84,.57-1.38-.34,.77,.26-.6,.3-.7,.6-1.39,.91-2.09,.74-1.67,1.5-3.32,2.29-4.96,2.91-6.1,6.13-12.07,9.9-17.68,.94-1.4,1.91-2.77,2.91-4.11,.17-.22,.33-.44,.5-.66-.56,.74,.27-.35,.32-.4,.52-.65,1.04-1.3,1.57-1.94,2-2.4,4.11-4.7,6.32-6.91s4.53-4.34,6.93-6.37c1.07-.9,2.15-1.79,3.25-2.66,.05-.04,1.14-.89,.42-.33,.33-.26,.67-.51,1.01-.76,.67-.51,1.35-1.01,2.03-1.5,5.1-3.68,10.45-7,15.97-10.01,13.65-7.42,27.23-12.47,42.24-17.18,2.24-.7,3.91-3.17,3.14-5.54s-3.13-3.9-5.54-3.14h0Z"/><path class="cls-4" d="M343.13,83.01c.02,3.91-.18,7.82-.57,11.71-.37,3.64-.82,6.66-1.57,10.65-1.44,7.66-3.42,15.21-5.58,22.69s-4.33,14.74-6.85,21.99c-2.26,6.5-4.4,11.73-7.67,17.84-2.77,5.16-5.93,10.12-9.43,14.81-.22,.29-.44,.59-.66,.88,0,0-.74,.96-.32,.42s-.33,.41-.33,.41c-.23,.29-.46,.58-.69,.86-1,1.25-2.02,2.47-3.07,3.68-1.94,2.23-3.95,4.4-6.04,6.49s-4.26,4.13-6.5,6.08c-1.03,.9-2.07,1.78-3.12,2.64-.58,.47-1.16,.94-1.74,1.4-.29,.23-.59,.46-.88,.69,.85-.66-.42,.32-.57,.43-4.77,3.6-9.78,6.88-15,9.81-2.94,1.65-5.95,3.19-9.01,4.61-.74,.34-1.48,.68-2.22,1.01-.29,.13-.57,.25-.86,.38-.23,.1-.46,.2-.69,.3,.5-.21,.51-.21,.04-.02-1.62,.67-3.25,1.32-4.9,1.93-6.37,2.36-12.93,4.2-19.6,5.51-2.31,.46-3.85,3.34-3.14,5.54,.8,2.46,3.06,3.63,5.54,3.14,24.66-4.87,47.8-17.03,66.09-34.24,8.93-8.4,16.74-18.11,22.9-28.71,7.33-12.6,11.72-26.49,15.88-40.39,5.11-17.06,9.62-34.6,9.55-52.54,0-2.35-2.06-4.61-4.5-4.5s-4.51,1.98-4.5,4.5h0Z"/><path class="cls-5" d="M100.61,182.35c.28,.03,.57,.07,.85,.1,1.36,.16-.53-.08,.29,.04,.56,.08,1.13,.16,1.69,.25,1.33,.21,2.66,.43,3.98,.68,2.36,.45,4.71,.96,7.04,1.55,4.79,1.2,9.52,2.68,14.16,4.39,1.13,.42,2.25,.85,3.37,1.29,.59,.23,1.18,.47,1.77,.71,.26,.11,.52,.22,.79,.32,.89,.37-.47-.21,.49,.21,2.21,.96,4.41,1.95,6.59,3,4.5,2.16,8.9,4.51,13.22,7.01,8.67,5.02,17,10.63,25.07,16.57,2.01,1.48,4,2.98,5.98,4.5,.28,.22,.56,.43,.85,.65-.15-.11-.59-.46,.1,.07,.44,.34,.88,.69,1.33,1.03,.99,.78,1.99,1.56,2.97,2.35,3.84,3.08,7.61,6.25,11.21,9.6,3.99,3.7,7.79,7.61,11.25,11.82,.44,.54,.87,1.08,1.3,1.62,.54,.69,.17,.22,.06,.08,.25,.33,.5,.66,.75,1,.82,1.11,1.62,2.24,2.39,3.39,1.54,2.31,2.96,4.7,4.24,7.16,1.09,2.09,4.18,2.89,6.16,1.61,2.13-1.37,2.78-3.92,1.61-6.16-9.58-18.31-26.01-31.71-42.22-43.94-16.55-12.48-34.18-23.63-53.5-31.29-10.87-4.31-22.16-7.21-33.76-8.61-2.35-.28-4.6,2.27-4.5,4.5,.12,2.68,1.99,4.2,4.5,4.5h0Z"/><path class="cls-10" d="M230.66,361.29c-2.08-17.17-4.51-34.38-5.03-51.69-.25-8.47,0-16.95,.98-25.37,.06-.53,.13-1.06,.19-1.6,.03-.23,.06-.46,.09-.68-.01,.1-.08,.59,0,.06,.15-1.06,.3-2.12,.47-3.18,.31-1.96,.66-3.91,1.04-5.86,.78-3.95,1.71-7.86,2.79-11.74,1.21-4.34,2.61-8.63,4.2-12.85,.37-.98,.75-1.95,1.14-2.92,.22-.55,.45-1.1,.68-1.65,0-.01,.29-.68,.12-.28-.15,.35,.18-.42,.21-.48,.91-2.1,1.87-4.17,2.87-6.23s.64-4.96-1.61-6.16c-2.02-1.07-5.05-.64-6.16,1.61-7.22,14.76-12.06,30.62-14.36,46.89-2.46,17.48-1.87,34.99-.08,52.51,1.01,9.89,2.28,19.75,3.47,29.62,.28,2.33,1.87,4.62,4.5,4.5,2.2-.1,4.8-2,4.5-4.5h0Z"/><path class="cls-9" d="M311.11,124.94c-11.37,12.45-22.97,24.74-33.49,37.93-5.35,6.71-10.41,13.65-15.01,20.9s-8.7,14.51-12.87,21.86c-4.94,8.69-9.87,17.39-14.81,26.08-1.16,2.05-.55,5.01,1.61,6.16s4.92,.57,6.16-1.61c8.51-15,16.73-30.22,25.78-44.9,8.8-14.29,18.49-26.25,29.67-38.79,6.37-7.15,12.87-14.19,19.33-21.26,1.59-1.74,1.85-4.67,0-6.36-1.73-1.59-4.67-1.86-6.36,0h0Z"/><g><path class="cls-7" d="M464.58,259.91V90.34h105.93v25.27h-75.66v42.39h67.15v26.09h-67.15v75.82h-30.26Z"/><path class="cls-7" d="M622.52,173.49h-27.43c1.26-11.95,6.3-22.28,15.13-30.98,8.19-7.6,19.54-11.41,34.05-11.41s25.85,3.54,34.05,10.6c8.19,7.07,12.29,19.3,12.29,36.69v48.1c0,11.41,1.57,22.29,4.73,32.61h-28.37l-2.84-11.41c-14.51,11.95-29.95,15.49-46.34,10.6-16.4-4.36-25.54-14.13-27.43-29.35-2.53-22.28,9.46-36.41,35.94-42.39,12.61-2.71,21.43-4.89,26.48-6.52,6.3-2.17,9.46-5.97,9.46-11.41,0-6.52-3.47-11.13-10.4-13.86-7.57-2.17-14.51-1.35-20.81,2.45-5.05,2.18-7.89,7.62-8.51,16.3Zm39.72,21.2c-1.89,1.63-6,3.54-12.29,5.71-5.67,1.63-11.67,3.81-17.97,6.52-10.73,4.36-15.46,11.15-14.19,20.38,1.89,8.7,8.51,12.51,19.86,11.41,8.19-.53,14.5-4.08,18.92-10.6,3.78-5.43,5.67-11.13,5.67-17.12v-16.3Z"/><path class="cls-7" d="M746.42,259.09h-28.37v-126.36h28.37v126.36Z"/><path class="cls-7" d="M797.49,132.73h27.43v17.12c6.93-12.5,16.39-18.75,28.37-18.75,12.61,0,22.7,7.07,30.26,21.2,7.57-14.13,18.59-21.2,33.1-21.2,23.32,0,34.99,13.86,34.99,41.58v86.41h-27.43v-78.26c0-8.15-2.53-14.39-7.57-18.75-2.53-2.17-6-3.26-10.4-3.26-5.05,0-9.15,1.91-12.29,5.71-3.78,4.36-5.67,11.96-5.67,22.83v71.74h-28.37v-78.26c0-8.69-2.22-14.94-6.62-18.75-2.53-2.17-6-3.26-10.4-3.26s-8.2,1.91-11.35,5.71c-4.42,5.44-6.62,13.04-6.62,22.83v71.74h-27.43v-126.36Z"/><path class="cls-7" d="M976.24,91.15h66.2c15.13,0,27.74,4.36,37.83,13.04,9.46,8.15,14.19,19.03,14.19,32.61,0,14.67-5.05,26.37-15.13,35.05-3.78,3.26-8.51,6.25-14.19,8.97,13.24,2.73,20.81,12.23,22.7,28.53l1.89,18.75c.62,10.33,3.15,20.66,7.57,30.98h-33.1c-1.27-4.36-2.53-11.13-3.78-20.38-.63-11.41-1.27-18.75-1.89-22.01-1.27-9.78-4.11-16.57-8.51-20.38-4.42-3.8-11.35-5.71-20.81-5.71h-22.7v68.48h-30.26V91.15Zm30.26,74.19h34.99c5.67,0,11.02-2.17,16.08-6.52,5.04-4.34,7.57-10.05,7.57-17.12,0-8.15-2.53-14.39-7.57-18.75-5.05-4.34-11.35-6.52-18.92-6.52h-32.16v48.91Z"/><path class="cls-7" d="M1119.05,259.09v-122.28h29.32v122.28h-29.32Z"/><path class="cls-7" d="M1172.96,132.73h27.43v18.75c9.46-13.04,20.48-19.56,33.1-19.56,10.08,0,18.59,2.99,25.54,8.97,9.46,8.15,14.19,21.48,14.19,39.95v78.26h-28.37v-74.19c0-10.87-2.53-18.47-7.57-22.83-3.78-3.26-7.89-4.89-12.29-4.89-6.31,0-11.98,3.81-17.02,11.41-4.42,7.07-6.95,13.32-7.57,18.75v71.74h-27.43v-126.36Z"/><path class="cls-7" d="M1370.63,140.88v-9.78h27.43v104.35c0,14.14-4.42,24.99-13.24,32.61-8.84,7.6-20.81,11.41-35.94,11.41-13.88,0-24.92-2.73-33.1-8.15-8.84-5.99-14.51-15.49-17.02-28.53h27.43c1.89,11.41,8.82,17.12,20.81,17.12,6.29,0,11.66-1.91,16.08-5.71,5.04-4.34,7.57-10.87,7.57-19.57v-6.52c-8.2,9.78-19.86,13.86-34.99,12.23-25.23-2.71-38.78-19.29-40.67-49.73-.64-15.76,3.46-30.43,12.29-44.02,7.57-10.32,17.33-16.02,29.32-17.12,14.5-1.08,25.85,2.73,34.05,11.41Zm-26.48,78.26c8.19,0,14.5-2.71,18.92-8.15,5.04-6.52,7.57-15.21,7.57-26.09,0-10.32-1.89-18.75-5.67-25.27-3.16-5.43-8.2-8.69-15.13-9.78-15.13-1.63-24.28,9.25-27.43,32.61,0,12.51,2.2,22.01,6.62,28.53,3.78,5.44,8.82,8.15,15.13,8.15Z"/><g><path class="cls-1" d="M785.47,141.51c-1.28-1.05-2.72-1.5-4.15-1.78-5.7-1.12-11.59,.35-16.82,4.2-5.23,3.86-9.79,10.09-13.04,17.8-3.21,7.65-5.09,16.54-6.94,25.3"/><path class="cls-7" d="M786.22,140.21c-3.58-2.75-9.07-2.77-13.3-1.84-4.51,.99-8.58,3.43-11.96,6.53-6.96,6.39-11.04,15.31-13.71,24.22-1.72,5.75-2.95,11.64-4.19,17.51-.4,1.88,2.5,2.69,2.89,.8,1.96-9.32,3.81-18.93,7.97-27.57,3.51-7.3,8.98-14.76,16.83-17.72,4.2-1.58,10.15-2.26,13.94,.66,.65,.5,1.67,.09,2.05-.54,.46-.77,.1-1.56-.54-2.05h0Z"/></g><g><path class="cls-1" d="M744.52,187.04c.87-3.28,2.16-5.94,3.44-8.54,2.61-5.33,5.24-10.68,8.15-15.24s6.16-8.33,9.68-10.15"/><path class="cls-7" d="M745.97,187.43c.87-3.18,2.27-6.1,3.71-9.05,1.57-3.2,3.14-6.39,4.86-9.52,2.94-5.34,6.45-11.5,12.01-14.47,1.7-.91,.19-3.5-1.51-2.59-5.88,3.15-9.72,9.49-12.86,15.14-1.84,3.32-3.52,6.73-5.19,10.14-1.52,3.1-3,6.21-3.91,9.55-.51,1.86,2.38,2.66,2.89,.8h0Z"/></g><g><path class="cls-1" d="M786.18,141.4c-4.73,7.68-10.42,14.16-16.72,19.03-1.55,1.2-3.13,2.3-4.69,3.48-7.68,5.85-14.58,13.73-20.25,23.13"/><path class="cls-7" d="M784.89,140.64c-4.23,6.83-9.42,13.08-15.7,18.11-3.19,2.56-6.59,4.82-9.65,7.55s-5.69,5.51-8.22,8.56c-2.98,3.6-5.67,7.42-8.09,11.42-1,1.65,1.59,3.16,2.59,1.51,4.21-6.93,9.24-13.35,15.24-18.83,3.04-2.77,6.39-5.08,9.62-7.6s5.92-5.1,8.52-8.02c3.09-3.47,5.84-7.24,8.28-11.19,1.02-1.65-1.58-3.15-2.59-1.51h0Z"/></g></g><path class="cls-7" d="M403.83,349.95c52.75-36.81,120.01-41.86,182.09-33.85,36.43,4.7,72.16,13.57,107.81,22.22,35.07,8.51,70.22,16.33,105.9,21.84,70.94,10.96,142.9,14.34,214.56,10.31s142.51-14.38,213.82-20.97c71.2-6.57,143.47-9.45,214.29,2.46,8.66,1.46,17.28,3.15,25.86,5.03,1.88,.41,2.69-2.48,.8-2.89-69.79-15.32-141.58-15.35-212.51-9.99-72.1,5.44-143.7,16.11-215.79,21.6-73.08,5.57-146.42,4.24-219.12-5.41-36.72-4.88-73.04-11.98-109.06-20.55s-70.9-17.76-106.94-23.75c-61.22-10.18-127.68-10.29-183.85,19.48-6.7,3.55-13.14,7.53-19.36,11.87-1.57,1.1-.07,3.7,1.51,2.59h0Z"/><path class="cls-7" d="M424.76,300.04c31.28,5.52,60.46,18.27,89.88,29.74s60.31,21.19,92.69,21.82c35.13,.68,69.74-6.66,104.23-12.31,35.42-5.8,71.13-9.76,106.95-11.88,71.11-4.21,142.67-1.23,213.17,9.03,68.73,10,136.15,30.9,205.74,34.5,33.4,1.73,66.63-1.44,98.65-11.31,31.63-9.75,61.48-24.29,92.56-35.53,7.84-2.84,15.76-5.44,23.77-7.75,1.85-.53,1.06-3.43-.8-2.89-31.55,9.09-61.24,23.2-91.87,34.8-32.07,12.14-64.76,19.6-99.16,20.13-70.38,1.09-138.67-20.23-207.52-31.64s-138.31-15.92-207.8-13.58c-34.74,1.17-69.43,4.07-103.89,8.68-35.16,4.7-69.95,12.64-105.32,15.69-17.89,1.54-35.99,1.69-53.79-.95-15.43-2.29-30.49-6.57-45.2-11.67-29.9-10.35-58.59-24.12-89.12-32.66-7.38-2.06-14.84-3.77-22.38-5.1-1.89-.33-2.7,2.56-.8,2.89h0Z"/><path class="cls-7" d="M661.02,299.76c-8.18-.17-16.52,1.51-23.84,5.2-6.92,3.49-11.95,9.43-17.6,14.56-1.43,1.3,.69,3.42,2.12,2.12,5.35-4.85,10.1-10.51,16.6-13.89,6.94-3.61,14.94-5.16,22.72-5,1.93,.04,1.93-2.96,0-3h0Z"/><path class="cls-7" d="M659.73,300.5c-4.07,6.27-9.32,11.88-15.95,15.46-3.38,1.83-7.11,3.11-10.93,3.6-4.13,.52-8.1-.37-12.21-.48-1.93-.05-1.93,2.95,0,3,2.36,.06,4.68,.49,7.04,.63,2.01,.12,4.01,.01,6-.27,4.07-.57,8-1.95,11.62-3.9,7.07-3.82,12.69-9.86,17.03-16.54,1.05-1.62-1.54-3.13-2.59-1.51h0Z"/><path class="cls-7" d="M647.17,307.25c-2.45,.2-4.58,1.36-6.77,2.39s-4.46,2.1-6.69,3.15c-4.61,2.17-9.22,4.34-13.82,6.51-1.75,.82-.22,3.41,1.51,2.59,4.31-2.03,8.62-4.06,12.93-6.09,2.08-.98,4.16-1.96,6.24-2.94s4.31-2.42,6.6-2.61c1.91-.16,1.93-3.16,0-3h0Z"/><path class="cls-7" d="M812.57,381.76c8.08,1.35,16.61,1,24.41-1.62,7.35-2.47,13.16-7.55,19.5-11.81,1.59-1.07,.09-3.67-1.51-2.59-5.95,4-11.47,8.95-18.34,11.35-7.39,2.59-15.57,3.07-23.27,1.77-1.89-.32-2.7,2.57-.8,2.89h0Z"/><path class="cls-7" d="M814.03,381.37c4.88-5.55,10.82-10.42,17.82-13.01,3.62-1.34,7.44-2.1,11.31-2.08,4.23,.02,8.05,1.48,12.17,2.19,1.89,.33,2.7-2.56,.8-2.89-2.25-.39-4.41-1.11-6.64-1.6-2.07-.45-4.2-.69-6.33-.71-4.11-.02-8.26,.76-12.11,2.19-7.5,2.77-13.9,7.81-19.14,13.78-1.27,1.45,.84,3.57,2.12,2.12h0Z"/><path class="cls-7" d="M827.77,376.41c2.3,.14,4.5-.69,6.67-1.34,2.44-.74,4.87-1.48,7.31-2.22,4.79-1.45,9.59-2.91,14.38-4.36,1.84-.56,1.06-3.46-.8-2.89-4.64,1.41-9.28,2.81-13.91,4.22-2.28,.69-4.56,1.38-6.84,2.07s-4.5,1.67-6.81,1.52c-1.93-.12-1.92,2.88,0,3h0Z"/><path class="cls-7" d="M1144.15,385.97c-3.9-6.7-9.27-12.58-15.73-16.9-6.87-4.59-14.95-5.87-22.73-8.15-1.86-.54-2.65,2.35-.8,2.89,7.38,2.16,15.09,3.33,21.64,7.6,6.19,4.04,11.31,9.7,15.03,16.06,.97,1.67,3.57,.16,2.59-1.51h0Z"/><path class="cls-7" d="M1142.85,385.23c-8.03-.22-16.13-1.98-22.94-6.39-2.96-1.91-5.64-4.3-7.78-7.11-2.37-3.11-3.61-6.76-5.55-10.12-.97-1.67-3.56-.16-2.59,1.51,2.04,3.54,3.37,7.31,5.9,10.57,2.36,3.05,5.27,5.63,8.51,7.73,7.25,4.68,15.92,6.57,24.46,6.8,1.93,.05,1.93-2.95,0-3h0Z"/><path class="cls-7" d="M1130.53,378.06c-1.29-1.78-3.07-2.9-4.88-4.1-2.18-1.43-4.36-2.86-6.53-4.3-4.36-2.86-8.71-5.73-13.07-8.59-1.62-1.06-3.12,1.53-1.51,2.59,4.09,2.69,8.18,5.38,12.27,8.07,1.98,1.3,3.96,2.6,5.94,3.91,1.74,1.14,3.95,2.21,5.19,3.93,1.12,1.55,3.72,.05,2.59-1.51h0Z"/><path class="cls-7" d="M1358.35,316.15c-8.08,.61-16.16,2.98-23.06,7.29s-11.13,10.57-16.33,16.29c-1.3,1.43,.82,3.55,2.12,2.12,4.89-5.39,9.12-11.59,15.34-15.58s14.23-6.54,21.92-7.12c1.91-.15,1.93-3.15,0-3h0Z"/><path class="cls-7" d="M1357.05,316.89c-3.46,6.66-8.14,12.87-14.45,17.07-3.2,2.13-6.72,3.73-10.47,4.61-4.03,.94-8.03,.43-12.11,.72-1.91,.14-1.93,3.14,0,3,2.35-.17,4.71,.03,7.06-.05,1.96-.07,3.93-.34,5.84-.78,3.98-.92,7.79-2.65,11.19-4.91,6.74-4.49,11.83-11.02,15.53-18.15,.89-1.71-1.7-3.23-2.59-1.51h0Z"/><path class="cls-7" d="M1344.88,324.99c-2.26,.4-4.2,1.76-6.13,2.91-2.12,1.26-4.24,2.52-6.35,3.78-4.38,2.6-8.75,5.21-13.13,7.81-1.66,.99-.15,3.58,1.51,2.59,4.24-2.52,8.47-5.04,12.71-7.56,2.12-1.26,4.24-2.52,6.35-3.78,1.85-1.1,3.69-2.47,5.84-2.86,1.9-.34,1.09-3.23-.8-2.89h0Z"/><path class="cls-7" d="M474.07,344.85c8.06,1.45,16.6,1.19,24.43-1.34,7.38-2.38,13.25-7.39,19.64-11.58,1.61-1.05,.11-3.65-1.51-2.59-6,3.93-11.58,8.81-18.47,11.13-7.43,2.5-15.6,2.87-23.29,1.49-1.89-.34-2.7,2.55-.8,2.89h0Z"/><path class="cls-7" d="M475.53,344.46c4.95-5.5,10.94-10.28,17.98-12.78,3.64-1.3,7.47-2,11.34-1.94,4.23,.07,8.03,1.58,12.14,2.34,1.89,.35,2.7-2.54,.8-2.89-2.24-.42-4.4-1.16-6.62-1.67-2.07-.48-4.2-.74-6.32-.78-4.11-.07-8.26,.67-12.13,2.05-7.53,2.68-13.99,7.66-19.3,13.56-1.29,1.43,.83,3.56,2.12,2.12h0Z"/><path class="cls-7" d="M489.32,339.67c2.3,.17,4.51-.64,6.68-1.27,2.45-.71,4.89-1.42,7.34-2.13,4.81-1.4,9.62-2.79,14.44-4.19,1.85-.54,1.06-3.43-.8-2.89-4.65,1.35-9.31,2.7-13.96,4.05-2.29,.66-4.58,1.33-6.86,1.99s-4.51,1.61-6.83,1.44c-1.93-.14-1.92,2.86,0,3h0Z"/><path class="cls-7" d="M923.34,361.7c7.4-2.53,14.33-6.65,19.85-12.22s8.59-13.39,12.33-20.51c.9-1.71-1.69-3.23-2.59-1.51-3.53,6.73-6.16,14.04-11.54,19.58s-11.79,9.35-18.84,11.76c-1.82,.62-1.04,3.52,.8,2.89h0Z"/><path class="cls-7" d="M924.39,360.65c1.74-7.59,4.88-15.01,10.25-20.76,2.47-2.64,5.32-4.88,8.53-6.54,3.64-1.89,7.6-2.39,11.44-3.69,1.82-.61,1.04-3.51-.8-2.89-4.03,1.36-8.15,1.94-11.98,3.9-3.49,1.78-6.65,4.25-9.32,7.1-5.72,6.12-9.17,13.99-11.02,22.08-.43,1.88,2.46,2.68,2.89,.8h0Z"/><path class="cls-7" d="M934.14,349.75c2.05-.93,3.56-2.7,5.11-4.27,1.78-1.8,3.56-3.6,5.34-5.4,3.56-3.6,7.12-7.2,10.69-10.8,1.36-1.37-.76-3.5-2.12-2.12-3.47,3.5-6.93,7.01-10.4,10.51-1.68,1.7-3.37,3.41-5.05,5.11-1.55,1.57-3.04,3.46-5.08,4.38-.74,.34-.91,1.4-.54,2.05,.43,.76,1.32,.87,2.05,.54h0Z"/><path class="cls-7" d="M841.3,297.17c3.55,6.9,8.62,13.03,14.83,17.68,6.61,4.95,14.63,6.65,22.27,9.34,1.82,.64,2.61-2.26,.8-2.89-7.26-2.55-14.87-4.14-21.2-8.77-5.97-4.36-10.75-10.32-14.12-16.87-.88-1.72-3.47-.2-2.59,1.51h0Z"/><path class="cls-7" d="M842.59,297.91c7.94,.64,15.86,2.85,22.4,7.53,2.86,2.05,5.43,4.59,7.41,7.5,2.25,3.29,3.32,7.04,5.1,10.56,.88,1.72,3.46,.2,2.59-1.51-1.91-3.76-3.05-7.74-5.55-11.2-2.23-3.08-4.95-5.72-8.04-7.93-6.96-4.99-15.47-7.26-23.91-7.94-1.92-.15-1.91,2.85,0,3h0Z"/><path class="cls-7" d="M854.47,305.8c1.22,1.89,3.06,3.12,4.84,4.43,2.08,1.53,4.16,3.07,6.24,4.6,4.16,3.07,8.33,6.14,12.49,9.21,1.56,1.15,3.05-1.46,1.51-2.59-3.92-2.89-7.84-5.78-11.75-8.67-1.96-1.44-3.92-2.89-5.88-4.33-1.67-1.23-3.72-2.39-4.86-4.17-1.04-1.62-3.64-.12-2.59,1.51h0Z"/><g><path class="cls-1" d="M1151.93,91.15c4.59,7.76,3.8,17.04-2.07,24.34-5.87,7.3-16.69,12.47-28.38,13.54"/><path class="cls-7" d="M1150.63,91.91c3.73,6.43,3.56,14.13-.38,20.44-3.66,5.87-9.92,9.88-16.28,12.28-4.01,1.52-8.23,2.49-12.5,2.9-1.9,.18-1.92,3.19,0,3,14.97-1.44,33.39-10.07,34.84-27.04,.39-4.58-.8-9.14-3.09-13.1-.97-1.67-3.56-.16-2.59,1.51h0Z"/></g><g><path class="cls-1" d="M1152.24,91.15c-9.86,3.72-19.64,8.12-26.25,14.71-6.61,6.59-9.44,15.82-4.51,23.17"/><path class="cls-7" d="M1151.84,89.71c-7.62,2.88-15.31,6.07-21.93,10.9-5.9,4.31-11.18,10.25-12.23,17.75-.56,4.03,.28,8.03,2.51,11.44,1.05,1.61,3.65,.11,2.59-1.51-3.68-5.64-2.42-12.34,1.21-17.68,4-5.89,10.5-9.84,16.76-12.94,3.87-1.91,7.86-3.53,11.9-5.06,1.79-.68,1.01-3.58-.8-2.89h0Z"/></g><g><path class="cls-1" d="M1142.64,105.27c-10.57,5.63-18.25,14.26-21.16,23.76"/><path class="cls-7" d="M1141.88,103.98c-9.87,5.31-18.45,13.77-21.85,24.66-.58,1.85,2.32,2.64,2.89,.8,3.17-10.15,11.29-17.94,20.47-22.87,1.7-.91,.19-3.51-1.51-2.59h0Z"/></g></svg>